<?xml version="1.0" encoding="UTF-8"?>
<svg width="60px" height="52px" viewBox="0 0 60 52" version="1.1" xmlns="http://www.w3.org/2000/svg" xmlns:xlink="http://www.w3.org/1999/xlink">
    <!-- Generator: sketchtool 50.2 (55047) - http://www.bohemiancoding.com/sketch -->
    <title>498BC1DB-3220-4D18-A42E-B380D2CC91C7</title>
    <desc>Created with sketchtool.</desc>
    <defs></defs>
    <g id="Page-1" stroke="none" stroke-width="1" fill="none" fill-rule="evenodd">
        <g id="2-Track-Selection" transform="translate(-638.000000, -177.000000)" fill="#231F20">
            <path d="M692.009072,202.57377 L695.432459,202.57377 L695.432459,195.754098 L692.009072,195.754098 L692.009072,202.57377 Z M689.441531,205.131148 L698,205.131148 L698,193.196721 L689.441531,193.196721 L689.441531,205.131148 Z M680.027216,195.754098 L680.027216,201.671016 C680.114512,201.97023 680.196674,202.270295 680.271132,202.57377 L683.450603,202.57377 L683.450603,195.754098 L680.027216,195.754098 Z M674.267367,216.612918 L671.589422,213.946426 L668.350897,217.172131 L671.373748,220.183016 C672.491484,219.128525 673.461159,217.928262 674.267367,216.612918 Z M659.442387,224.944852 C663.053205,224.944852 666.409837,223.838361 669.191339,221.951869 L664.392605,217.172131 L671.589422,210.002951 L675.587082,213.984787 C676.368471,212.018164 676.811799,209.882754 676.811799,207.643344 C676.811799,205.550557 676.41811,203.552393 675.731721,201.694033 C674.642227,202.69823 673.189855,203.316262 671.589422,203.316262 C670.24831,203.316262 669.010755,202.879803 668.003423,202.149246 L664.417425,205.172066 C664.879582,206.027934 665.143183,207.006557 665.143183,208.04741 C665.143183,211.406951 662.408752,214.130557 659.03586,214.130557 C657.627136,214.130557 656.334807,213.650623 655.3018,212.854426 L652.555388,215.168 C653.008986,216.017902 653.268308,216.987148 653.268308,218.016918 C653.268308,219.928984 652.380795,221.633049 650.995179,222.748066 C653.497675,224.142689 656.376744,224.944852 659.442387,224.944852 Z M671.589422,200.528721 C672.792742,200.528721 673.837731,199.878295 674.41714,198.918426 C673.349043,197.106951 671.968562,195.500918 670.336462,194.187279 C669.133141,194.68 668.281574,195.858098 668.281574,197.233115 C668.281574,199.049705 669.765612,200.528721 671.589422,200.528721 Z M648.467863,221.04059 C649.642941,220.53423 650.468833,219.370623 650.468833,218.016918 C650.468833,216.199475 648.984794,214.722164 647.160985,214.722164 C645.997033,214.722164 644.975152,215.32741 644.386329,216.235279 C645.447579,218.074033 646.828916,219.706492 648.467863,221.04059 Z M642.071264,207.643344 C642.071264,209.691803 642.449548,211.649049 643.10855,213.474164 C643.863407,212.805836 644.783442,212.320787 645.802756,212.08977 L645.802756,203.160262 C644.788577,202.930098 643.871109,202.449311 643.117964,201.784393 C642.452971,203.618033 642.071264,205.584656 642.071264,207.643344 Z M648.496962,194.224787 C646.850312,195.558885 645.462985,197.192197 644.396599,199.034361 C644.98799,199.931148 646.00388,200.528721 647.160985,200.528721 C648.984794,200.528721 650.468833,199.049705 650.468833,197.233115 C650.468833,195.890492 649.655778,194.737967 648.496962,194.224787 Z M666.292586,200.253377 C665.779933,199.362557 665.482099,198.333639 665.482099,197.233115 C665.482099,195.306557 666.384161,193.592262 667.788606,192.477246 C665.309217,191.118426 662.465238,190.340984 659.442387,190.340984 C656.387014,190.340984 653.519071,191.13718 651.022566,192.521574 C652.391921,193.637443 653.268308,195.332984 653.268308,197.233115 C653.268308,200.183475 651.159501,202.641115 648.360882,203.196918 L648.360882,212.052262 C649.308305,212.240656 650.173566,212.649836 650.907027,213.219279 L653.648304,210.909967 C653.18957,210.056656 652.928537,209.083148 652.928537,208.04741 C652.928537,204.687869 655.662968,201.964262 659.03586,201.964262 C660.438593,201.964262 661.727498,202.440787 662.758794,203.231869 L666.292586,200.253377 Z M659.03586,211.342164 C660.85967,211.342164 662.343708,209.864852 662.343708,208.04741 C662.343708,206.23082 660.85967,204.752656 659.03586,204.752656 C657.211194,204.752656 655.728012,206.23082 655.728012,208.04741 C655.728012,209.864852 657.211194,211.342164 659.03586,211.342164 Z M668.901207,186.377049 L672.324594,186.377049 L672.324594,180.409836 L672.324594,179.557377 L668.901207,179.557377 L668.901207,186.377049 Z M677.459675,193.196721 L686.018144,193.196721 L686.018144,205.131148 L680.730722,205.131148 C680.828289,205.955475 680.883063,206.79259 680.883063,207.643344 C680.883063,208.25541 680.851396,208.859803 680.800901,209.459082 L683.364163,209.459082 L683.364163,221.393508 L679.940775,221.393508 L679.940775,213.919148 C677.249137,222.650885 669.090349,229 659.442387,229 C647.600034,229 638,219.437967 638,207.643344 C638,199.536459 642.535988,192.484066 649.216729,188.86623 L649.216729,177 L652.640116,177 L652.640116,187.38977 C654.273928,186.845902 655.993324,186.493836 657.775198,186.357443 L657.775198,177 L661.198585,177 L661.198585,186.36341 C662.986449,186.508328 664.710981,186.870623 666.348216,187.424721 L666.443215,177.046033 L674.892135,177.046033 L674.892135,188.934426 L669.785297,188.934426 C672.898867,190.646164 675.536587,193.108066 677.459675,196.072918 L677.459675,193.196721 Z M680.027216,188.934426 L683.450603,188.934426 L683.450603,177 L680.027216,177 L680.027216,188.934426 Z" id="DataScience"></path>
        </g>
    </g>
</svg>