<?xml version="1.0" encoding="UTF-8"?>
<svg width="60px" height="60px" viewBox="0 0 60 60" version="1.1" xmlns="http://www.w3.org/2000/svg" xmlns:xlink="http://www.w3.org/1999/xlink">
    <!-- Generator: sketchtool 50.2 (55047) - http://www.bohemiancoding.com/sketch -->
    <title>6A2ECF54-E760-42DC-BAEE-DD80F7FCFC65</title>
    <desc>Created with sketchtool.</desc>
    <defs></defs>
    <g id="Page-1" stroke="none" stroke-width="1" fill="none" fill-rule="evenodd">
        <g id="2-Track-Selection" transform="translate(-483.000000, -166.000000)" fill="#231F20">
            <path d="M485.67838,166 L483,170.166667 L492.820727,170.166667 L495.5,166 L485.67838,166 Z M488.833333,175.166667 L488.833333,180.424502 L499.316331,180.424502 L499.316331,183.931186 L488.833333,183.931186 L488.833333,189.189021 L499.316331,189.189021 L499.316331,193.57128 L488.833333,193.57128 L488.833333,197.953539 L499.316331,197.953539 L499.316331,226 L543,226 L542.860215,177.879285 L509.800202,177.795146 L509.800202,175.166667 L488.833333,175.166667 Z M503,222.666667 L539.666667,222.666667 L539.666667,185.166667 L503,185.166667 L503,222.666667 Z M523,199.333333 L537.166667,199.333333 L537.166667,188.5 L523,188.5 L523,199.333333 Z M506.333333,219.333333 L519.666667,219.333333 L519.666667,188.5 L506.333333,188.5 L506.333333,219.333333 Z M523,219.333333 L537.166667,219.333333 L537.166667,203.5 L523,203.5 L523,219.333333 Z M485.67838,203.5 L483,207.666667 L492.820727,207.666667 L495.5,203.5 L485.67838,203.5 Z" id="Frontend"></path>
        </g>
    </g>
</svg>